<svg xmlns="http://www.w3.org/2000/svg" width="89" height="89" viewBox="0 0 89 89" fill="none">
  <g clip-path="url(#clip0_1858_24216)">
    <path d="M33.8959 83.6276C29.5815 83.6276 26.0723 80.1178 26.0723 75.8041C26.0723 71.4897 29.5815 67.9805 33.8959 67.9805C38.2098 67.9805 41.7189 71.4895 41.7189 75.804C41.7189 80.1178 38.2098 83.6276 33.8959 83.6276Z" fill="#707FDD"/>
    <path d="M70.7543 83.6276C66.4404 83.6276 62.9307 80.1178 62.9307 75.8041C62.9307 71.4897 66.4404 67.9805 70.7541 67.9805C75.0679 67.9805 78.5778 71.4895 78.5778 75.804C78.5778 80.1178 75.068 83.6276 70.7543 83.6276Z" fill="#707FDD"/>
    <path d="M78.9936 65.3779C78.9936 66.8386 77.846 67.9862 76.3862 67.9862H26.4901C22.1607 67.9862 18.6664 64.4912 18.6664 60.1625C18.6664 56.1992 21.5867 52.9126 25.4464 52.4435C25.7593 52.3388 26.1247 52.3388 26.4901 52.3388C27.1153 52.3388 27.7415 52.6003 28.159 53.0171L26.5938 57.5551H26.4901C25.0294 57.5551 23.8819 58.702 23.8819 60.1625C23.8819 61.623 25.0294 62.7706 26.4901 62.7706H76.3862C77.846 62.7706 78.9936 63.9174 78.9936 65.378V65.3779ZM17.301 15.8356C17.4666 16.0442 20.275 17.3125 23.1023 18.5543C23.1128 18.3297 23.1411 18.1068 23.0902 17.8774L20.7958 7.44561C20.6684 6.86507 20.3464 6.34553 19.8831 5.97318C19.4199 5.60082 18.8432 5.39803 18.2489 5.39844H2.60226C1.16053 5.39844 -0.00585938 6.56483 -0.00585938 8.00656C-0.00585938 9.44742 1.16053 10.614 2.60226 10.614H16.1527L17.301 15.8356Z" fill="white"/>
    <path d="M78.9934 65.377C78.9934 66.8376 77.8458 67.9852 76.386 67.9852H51.8545V62.7695H76.386C77.8458 62.7695 78.9934 63.9163 78.9934 65.377Z" fill="#DCDCDC"/>
    <path d="M88.4849 16.8757C87.9634 16.1972 87.2329 15.832 86.3983 15.832H17.3086L25.4451 52.446L26.5926 57.5576H75.9672C77.1148 57.5576 78.1578 56.7746 78.4709 55.6793L88.9019 19.1701C89.1111 18.3878 88.9541 17.5011 88.4849 16.8757Z" fill="#707FDD"/>
    <path d="M88.9059 19.1701L78.4748 55.6795C78.1618 56.7748 77.1188 57.5578 75.9712 57.5578H51.8574V15.832H86.4023C87.2368 15.832 87.9674 16.1974 88.4889 16.8759C88.9582 17.5011 89.115 18.3878 88.9059 19.1701Z" fill="#5668D6"/>
  </g>
  <defs>
    <clipPath id="clip0_1858_24216">
      <rect width="89" height="89" fill="white"/>
    </clipPath>
  </defs>
</svg>